<svg width="47" height="31" viewBox="0 0 47 31" fill="none" xmlns="http://www.w3.org/2000/svg">
<path d="M6.48122 2.21905C6.35823 2.57332 6.35235 2.94229 6.33079 3.29999C6.24014 4.80576 6.38763 6.28066 6.94917 7.69872C7.59303 9.32405 8.65584 10.6123 10.0612 11.6329C11.4993 12.6776 13.1246 13.3028 14.8102 13.8169C16.4767 14.325 18.0085 15.0928 19.2712 16.332C20.5359 17.5732 21.2434 19.0922 21.534 20.8214C21.6487 21.504 21.6947 22.1929 21.6962 22.8853C21.6962 22.9681 21.6977 23.0524 21.6844 23.1332C21.6399 23.4047 21.4336 23.5781 21.191 23.5566C20.9553 23.5355 20.7936 23.3552 20.7926 23.0759C20.7912 22.4948 20.7574 21.9166 20.6912 21.3393C20.3904 18.7164 19.0345 16.8206 16.7281 15.5779C15.7976 15.0766 14.8009 14.7508 13.7969 14.4347C11.659 13.7625 9.7015 12.7692 8.12272 11.1317C6.688 9.64304 5.83736 7.86385 5.53405 5.82741C5.27778 4.10947 5.39489 2.40917 5.87264 0.736308C5.88293 0.701028 5.89567 0.666238 5.90498 0.630468C5.96574 0.388898 6.11372 0.230628 6.36607 0.228178C6.59833 0.225728 6.72916 0.386939 6.80119 0.592738C7.00062 1.15967 7.26375 1.69769 7.54158 2.22885C7.66555 2.46552 7.79785 2.69778 7.9277 2.93151C8.22513 3.46855 8.74845 3.68219 9.28892 3.85369C10.2792 4.16778 11.3062 4.27509 12.3362 4.35545C13.9086 4.47893 15.485 4.45345 17.0603 4.47795C18.2814 4.49657 19.3785 4.96305 20.4198 5.56232C21.3581 6.10279 22.2136 6.75694 22.9976 7.50468C23.0844 7.58749 23.1853 7.6556 23.2652 7.7438C23.3892 7.881 23.4813 7.85356 23.6062 7.734C24.4074 6.96764 25.2629 6.27037 26.2125 5.69217C27.5056 4.90474 28.8767 4.41474 30.4211 4.46472C31.8304 4.51029 33.2411 4.46129 34.6469 4.34908C35.694 4.26529 36.7367 4.14083 37.7408 3.79783C38.3444 3.59203 38.7967 3.24413 39.0917 2.65711C39.4396 1.96523 39.8105 1.2856 40.0624 0.550598C40.1334 0.343328 40.279 0.224748 40.4946 0.226708C40.7278 0.228668 40.8606 0.382529 40.9311 0.589799C41.1605 1.26502 41.2879 1.96425 41.3682 2.66936C41.549 4.25255 41.4535 5.81663 40.9738 7.34494C40.1898 9.84247 38.5845 11.6721 36.359 12.9907C35.1457 13.7095 33.8408 14.2093 32.4938 14.6141C31.0787 15.0394 29.7503 15.6401 28.6096 16.6064C27.1969 17.803 26.4404 19.348 26.1841 21.159C26.1003 21.7524 26.0582 22.3497 26.0719 22.95C26.0734 23.0142 26.0744 23.0798 26.0665 23.1435C26.0366 23.3885 25.8578 23.5571 25.6285 23.5605C25.3844 23.5644 25.1821 23.3949 25.1757 23.1327C25.1184 20.7371 25.6059 18.515 27.2602 16.6706C28.3656 15.4378 29.7596 14.6523 31.2875 14.0756C32.3218 13.685 33.4028 13.4312 34.4166 12.978C36.3663 12.1063 38.0593 10.9214 39.2117 9.0766C39.9678 7.86679 40.3745 6.53987 40.5044 5.11936C40.5847 4.24177 40.5494 3.37153 40.4402 2.50129C40.4289 2.41113 40.4377 2.31558 40.3466 2.21121C40.2089 2.45817 40.058 2.68504 39.9502 2.93102C39.5244 3.90416 38.7482 4.43728 37.7633 4.72883C36.723 5.03704 35.6538 5.16444 34.5778 5.24823C33.0054 5.37073 31.4291 5.3477 29.8537 5.36926C28.7262 5.38494 27.7203 5.82888 26.7682 6.39973C25.6941 7.04359 24.7401 7.83739 23.8708 8.73605C23.5288 9.08934 23.3372 9.09081 22.9942 8.74046C21.9559 7.68059 20.8157 6.75351 19.4902 6.07094C18.644 5.63533 17.7551 5.35407 16.7903 5.36044C15.5183 5.36926 14.2462 5.37563 12.9762 5.29723C11.6884 5.21736 10.4032 5.11103 9.15515 4.745C8.19769 4.46423 7.39458 3.99579 6.96632 3.03686C6.87273 2.82714 6.7517 2.62918 6.63949 2.42828C6.60127 2.35821 6.59 2.26707 6.48122 2.21905Z" fill="white"/>
<path d="M30.2488 24.2401C30.2493 22.8941 30.2483 21.5485 30.2498 20.2025C30.2503 19.7463 30.388 19.6126 30.8471 19.614C33.4083 19.6219 35.7491 21.6559 36.1386 24.2132C36.6065 27.2845 34.6608 30.0123 31.6002 30.5753C28.5647 31.1334 25.5193 28.8496 25.2136 25.7846C25.1964 25.6106 25.1719 25.4367 25.1704 25.2623C25.1675 24.9046 25.3449 24.6792 25.6163 24.6757C25.8981 24.6718 26.0632 24.8781 26.073 25.2461C26.1279 27.284 27.5543 29.0799 29.5216 29.587C32.225 30.2843 34.9102 28.4747 35.2772 25.7072C35.5981 23.2866 33.8498 20.9356 31.4743 20.569C31.1827 20.524 31.1529 20.6229 31.1533 20.8625C31.1592 23.2778 31.1573 25.693 31.1578 28.1077C31.1578 28.2091 31.1622 28.311 31.1538 28.412C31.1284 28.7153 30.9524 28.8883 30.6825 28.8819C30.4046 28.8755 30.2513 28.7099 30.2503 28.3875C30.2468 27.0057 30.2483 25.6229 30.2488 24.2401Z" fill="white"/>
<path d="M11.0827 27.3849C10.8979 27.6971 10.7416 28.018 10.5329 28.3091C9.18047 30.1975 6.86375 31.0501 4.63033 30.4749C2.42582 29.907 0.796573 28.02 0.537363 25.7327C0.516783 25.5499 0.495223 25.3656 0.498653 25.1824C0.504533 24.8879 0.695633 24.6801 0.940633 24.6752C1.20817 24.6699 1.38212 24.8659 1.39927 25.1863C1.49237 26.963 2.29352 28.311 3.84829 29.1911C6.50262 30.6929 10.0537 28.9916 10.5584 25.983C10.5995 25.7366 10.6162 25.4896 10.6284 25.2412C10.6461 24.884 10.8053 24.6904 11.0758 24.6797C11.3482 24.6689 11.5271 24.8379 11.5462 25.2108C11.5815 25.8919 11.7148 26.5431 12.019 27.1561C12.9559 29.0441 14.8993 29.8967 16.628 29.7178C18.6894 29.5047 20.3765 27.9406 20.7219 25.8503C20.7577 25.6327 20.7739 25.4112 20.7876 25.1907C20.8077 24.8673 20.9733 24.6733 21.2418 24.6748C21.4961 24.6762 21.7005 24.8972 21.6916 25.204C21.6745 25.7959 21.5794 26.3765 21.3815 26.9376C20.5465 29.3008 18.2768 30.8306 15.7798 30.6336C13.7585 30.4739 12.2493 29.4596 11.2664 27.6775C11.214 27.5834 11.1905 27.4702 11.0827 27.3849Z" fill="white"/>
<path d="M40.7038 30.6523C39.1745 30.5979 37.6707 29.8761 36.5505 28.3934C36.4476 28.2572 36.3682 28.1155 36.3952 27.9367C36.4226 27.7564 36.5206 27.6349 36.6965 27.578C36.9117 27.5084 37.0807 27.5873 37.2061 27.7554C37.4712 28.1116 37.7569 28.4473 38.1122 28.7178C39.5131 29.7845 41.057 30.0613 42.6927 29.4062C44.3885 28.7271 45.3499 27.4286 45.5866 25.6082C45.6067 25.4534 45.6184 25.2971 45.6302 25.1412C45.6513 24.861 45.8257 24.6772 46.0766 24.6748C46.3123 24.6723 46.5196 24.8688 46.5289 25.1432C46.5406 25.5024 46.4902 25.8601 46.4211 26.2124C45.9154 28.7736 43.633 30.6474 40.7038 30.6523Z" fill="white"/>
</svg>
